<?xml version="1.0" encoding="utf-8"?>
<svg version="1.1" xmlns="http://www.w3.org/2000/svg" xmlns:xlink="http://www.w3.org/1999/xlink" x="0px" y="0px"
	 viewBox="0 0 722 285" xml:space="preserve" fill="violet">
<g>
	<path d="M705.7,249H160.5c-9,0-16.3,7.3-16.3,16.3c0,9,7.3,16.3,16.3,16.3h545.1c9,0,16.3-7.3,16.3-16.3
		C722,256.3,714.7,249,705.7,249z"/>
	<path d="M208.8,216.7c3.5,0,6.9-1.1,9.7-3.2c26-20.6,50.7-42.8,74-66.5c41.1-40.1,92.2-90,119-83.5
		c1.2,0.2,2.4,0.6,3.4,1.3c3.8,6.9-11.9,37.3-18.6,50.3c-12.4,24.1-22.2,43.1-16.3,58.4c2.4,6.4,7.5,11.4,13.9,13.8
		c20.5,7.9,42.8-7.2,66.4-23.3c18-12.2,42.6-29,52.8-22.6c3.6,2.2,4.7,12.1,5.6,19.9c1.5,13.3,3.6,31.5,20.3,39.1
		c17.4,7.9,43.1,2.6,117.5-48.5c7.4-5.1,9.3-15.3,4.2-22.7c-5.1-7.4-15.3-9.3-22.7-4.2l0,0c-60.6,41.7-79.4,45.8-84.5,45.8h-0.1
		c-1.1-4.3-1.8-8.7-2.2-13.1c-1.6-14.1-3.8-33.3-20.7-43.9c-28.3-17.7-60.3,4-88.5,23.2c-9.1,6.4-18.5,12.3-28.3,17.5
		c3-7.4,8.1-17.1,11.8-24.5c14.4-28,29.3-57,19.2-78.9C439.7,41,430.2,33.8,419,31.7c-44.2-10.6-95.3,39.2-149.3,91.9
		c-22.2,22.7-45.8,43.9-70.6,63.6c-7.3,5.4-8.8,15.6-3.4,22.9C198.8,214.3,203.6,216.8,208.8,216.7L208.8,216.7z"/>
</g>
<g>
	<path d="M83.1,1.8C37.9,1.8,1.2,38.6,1.2,83.7c0,17.9,5.7,34.8,16.3,49.1c8.5,11.3,20,20.4,32.9,26V260
		c0,5.8,2.8,11.3,7.5,14.7l8.8,6.3c3.1,2.3,6.8,3.4,10.6,3.4c5.7,0,11.1-2.7,14.5-7.2l21.4-28.3c4.9-6.5,4.9-15.5,0-21.9l-2.8-3.7
		l2.8-3.7c4.9-6.5,4.9-15.5,0-22l-2.7-3.6l11.3-14.6c2.5-3.2,3.8-7.1,3.8-11.1v-14.7c10.7-6.5,19.8-15.4,26.5-26
		c8.4-13.2,12.9-28.4,12.9-44.1C165,38.6,128.3,1.8,83.1,1.8z M113.5,146.6v21.9c0,1.4-0.4,2.7-1.3,3.7l-14.1,18.2
		c-1.7,2.2-1.7,5.2,0,7.4l5.5,7.2c1.6,2.2,1.6,5.2,0,7.4l-8.3,10.9v0l8.3,11c1.6,2.2,1.6,5.2,0,7.3L82.2,270c-1.2,1.6-3,2.4-4.9,2.4
		c-1.2,0-2.5-0.4-3.6-1.2l-8.8-6.3c-1.6-1.1-2.5-3-2.5-4.9V150.5c-28.5-8.8-49.2-35.3-49.2-66.7c0-38.6,31.3-69.8,69.8-69.8
		s69.8,31.3,69.8,69.8C152.9,111.4,136.8,135.3,113.5,146.6z"/>
	<path d="M83.5,42c-8.1,0-14.6,6.5-14.6,14.6c0,8.1,6.5,14.6,14.6,14.6c8.1,0,14.6-6.5,14.6-14.6
		C98.1,48.6,91.6,42,83.5,42z"/>
	<path d="M75.7,250.3h7.3v-96.7c-2.5,0-4.9-0.1-7.3-0.4L75.7,250.3L75.7,250.3z"/>
</g>
</svg>
